<?xml version="1.0" encoding="iso-8859-1"?>
<!-- Uploaded to: SVG Repo, www.svgrepo.com, Generator: SVG Repo Mixer Tools -->
<!DOCTYPE svg PUBLIC "-//W3C//DTD SVG 1.1//EN" "http://www.w3.org/Graphics/SVG/1.1/DTD/svg11.dtd">
<svg fill="#000000" height="800px" width="800px" version="1.1" id="Capa_1" xmlns="http://www.w3.org/2000/svg" xmlns:xlink="http://www.w3.org/1999/xlink" 
	 viewBox="0 0 479.089 479.089" xml:space="preserve">
<g>
	<path d="M408.928,70.161C363.684,24.917,303.529,0,239.545,0C175.56,0,115.405,24.917,70.161,70.161S0,175.561,0,239.545
		s24.917,124.139,70.161,169.383s105.399,70.161,169.384,70.161c63.984,0,124.139-24.917,169.383-70.161
		s70.161-105.398,70.161-169.383S454.172,115.406,408.928,70.161z M403.271,403.272c-43.733,43.732-101.879,67.817-163.727,67.817
		s-119.994-24.085-163.727-67.817C32.085,359.538,8,301.393,8,239.545S32.085,119.551,75.818,75.819
		C119.551,32.085,177.697,8,239.545,8c61.848,0,119.994,24.085,163.727,67.818c43.733,43.732,67.818,101.879,67.818,163.727
		S447.004,359.538,403.271,403.272z"/>
	<path d="M433.632,283.664c-3.227-23.031-17.163-43.615-37.276-55.061c-5.657-3.223-11.729-5.679-18.044-7.298
		c-6.396-1.644-13.083-2.466-19.885-2.392c-0.567-7.253-0.928-14.941-1.307-23.011c-2.134-45.452-4.789-102.02-50.055-133.702
		c-28.297-18.86-59.23-1.235-69.311,5.622c-1.729-1.545-4.32-3.615-7.86-5.802c-8.302-5.146-18.111-8.756-29.154-10.728
		c-14.888-2.663-31.596-2.221-49.66,1.312c-27.677,5.399-57.598,28.612-78.085,60.58c-27.058,42.219-34.972,94.24-22.286,146.479
		c10.801,44.503,35.857,84.151,70.554,111.642c23.494,18.608,46.84,28.602,69.389,29.7c58.636,2.86,79.417,26.821,79.607,27.048
		c0.773,0.938,1.913,1.457,3.088,1.457c0.392,0,0.789-0.058,1.177-0.177c1.549-0.478,2.658-1.843,2.806-3.458
		c0.018-0.197,0.169-1.962,0.101-4.889c1.311,0.083,2.848,0.143,4.575,0.143c5.63,0,13.264-0.628,21.568-3.086
		c14.931-4.42,34.796-15.78,45.912-44.713c23.189-0.083,45.056-10.041,63.838-29.223
		C429.558,327.533,436.771,306.067,433.632,283.664z M191.041,393.016c-20.847-1.016-42.653-10.431-64.811-27.98
		c-33.305-26.388-57.365-64.479-67.747-107.259c-12.167-50.096-4.621-99.913,21.247-140.275
		c19.349-30.191,47.276-52.049,72.884-57.045c17.09-3.342,32.809-3.774,46.719-1.288c12.509,2.234,21.231,6.481,26.35,9.654
		c3.709,2.292,6.166,4.4,7.476,5.643c-8.32,14.006-19.527,19.618-34.139,17.121c-22.564-3.851-42.28-0.6-58.605,9.669
		c-19.218,12.104-28.841,34.721-24.347,56.154c-3.977,1.167-10.405,3.607-17.292,8.476c-9.861,6.979-17.463,16.587-22.596,28.56
		c-1.234,2.88-2.192,6.039-2.846,9.391c-0.423,2.169,0.991,4.27,3.16,4.692c0.259,0.051,0.516,0.075,0.771,0.075
		c1.875,0,3.549-1.325,3.921-3.234c0.546-2.797,1.336-5.412,2.347-7.771c3.481-8.12,8.229-14.979,14.139-20.498
		c0.386,4.56,0.951,10.395,1.764,17.12c4.939,41.021,18.795,114.098,56.101,142.628c14.723,11.262,30.991,17.055,47.248,17.055
		c6.22,0,12.439-0.86,18.569-2.574c19.238,9.374,33.029,22.8,40.969,39.936c0.619,1.346,2.271,5.438,2.533,6.159
		c2.655,7.335,3.801,13.999,4.275,18.955C258.293,408.206,234.443,395.133,191.041,393.016z M220.712,343.194
		c-0.047,0.013-0.094,0.026-0.141,0.04c-20.077,6.109-41.447,1.585-60.175-12.741c-15.012-11.48-41.863-44.576-53.019-137.231
		c-1.161-9.608-1.809-17.363-2.145-22.085c5.306-3.43,10.126-5.214,13.085-6.085c1.387,3.636,3.199,7.126,5.412,10.414
		c5.447,8.085,12.86,14.206,22.033,18.193c16.74,7.272,34.021,1.438,50.734-4.21c19.947-6.738,38.789-13.104,56.227,2.061
		c11.544,10.03,13.186,35.712,14.924,62.901c0.668,10.442,1.361,21.23,2.619,31.918C262.714,314.774,244.24,335.981,220.712,343.194
		z M301.609,410.281c-10.618,3.202-20.18,3.007-24.807,2.629c-0.66-5.106-1.953-11.383-4.427-18.217
		c-0.278-0.765-2.08-5.24-2.79-6.784c-7.787-16.805-20.587-30.316-38.09-40.278c17.952-8.164,32.552-23.858,41.348-44.278
		c4.929,25.493,15.745,51.877,44.208,63.716c6.056,2.536,12.862,4.356,20.229,5.411c1.249,0.178,2.495,0.319,3.738,0.441
		C332.953,392.252,319.724,404.82,301.609,410.281z M407.608,338.511C407.608,338.511,407.608,338.511,407.608,338.511
		c-20.482,20.918-43.757,29.684-69.196,26.049c-6.694-0.958-12.841-2.597-18.28-4.874c-16.168-6.725-35.535-21.154-41.835-73.483
		c-1.29-10.724-1.99-21.673-2.667-32.262c-1.928-30.16-3.593-56.208-17.66-68.43c-9.621-8.366-19.667-11.24-29.683-11.24
		c-11.742,0-23.441,3.952-34.353,7.639c-15.979,5.399-31.073,10.498-44.985,4.451c-7.752-3.369-14.006-8.525-18.586-15.324
		c-2.482-3.688-4.367-7.67-5.604-11.836c-5.691-19.161,2.5-40.206,19.915-51.175c14.605-9.187,32.434-12.065,52.998-8.553
		c19.199,3.275,34.618-5.396,44.648-25.081c3.946-2.671,12.686-7.979,23.398-10.767c13.869-3.606,26.287-1.846,36.832,5.182
		c41.972,29.378,44.418,81.492,46.577,127.473c0.252,5.37,0.498,10.571,0.801,15.607c0.382,6.327,0.514,12.66,0.349,18.997
		c-0.112,4.312-0.06,9.981,0.515,16.253c1.687,18.414,6.882,32.513,15.44,41.903c7.822,8.583,18.236,12.93,30.966,12.93
		c0.281,0,0.562-0.002,0.845-0.007c2.167-0.032,4.087-1.685,4.167-3.85c0.084-2.289-1.746-4.153-3.995-4.153
		c-0.026,0-0.052,0-0.078,0.001c-10.98,0.181-19.467-3.157-25.98-10.297c-14.676-16.088-14.29-46.486-13.694-56.74
		c6.124-0.046,12.121,0.656,17.857,2.131c5.627,1.442,11.035,3.63,16.075,6.501c17.974,10.228,30.426,28.627,33.312,49.219
		C428.496,304.664,422.067,323.748,407.608,338.511z"/>
	<path d="M217.74,309.605l-2.531-0.468c-0.771-0.143-1.46-0.562-1.94-1.182c-1.966-2.538-4.931-4.11-8.135-4.313
		c-3.111-0.197-6.16,0.914-8.412,3.054c-2.737-1.472-5.97-1.741-8.919-0.731c-3.038,1.039-5.484,3.337-6.712,6.303
		c-0.3,0.725-0.854,1.311-1.561,1.651l-2.318,1.118c-2.195,1.058-3.641,3.138-3.867,5.563c-0.226,2.427,0.811,4.738,2.773,6.183
		c4.74,3.49,10.375,5.328,16.172,5.328c1.219,0,2.447-0.081,3.674-0.245l8.114-1.087c7.062-0.946,13.386-4.544,17.808-10.129
		c1.513-1.91,1.904-4.412,1.048-6.693S220.137,310.048,217.74,309.605z M203.017,322.849l-8.114,1.087
		c-4.367,0.585-8.719-0.314-12.456-2.543l0.558-0.269c2.479-1.195,4.424-3.253,5.478-5.796c0.479-1.157,1.403-1.621,1.911-1.795
		c0.508-0.175,1.523-0.373,2.611,0.248c2.975,1.696,6.745,1.192,9.17-1.229c0.885-0.886,1.914-0.959,2.454-0.926
		c0.536,0.034,1.55,0.238,2.315,1.227c1.685,2.176,4.103,3.65,6.811,4.151l0.608,0.112
		C211.345,320.249,207.379,322.265,203.017,322.849z"/>
	<path d="M248.485,217.8c-0.322-1.507-1.481-2.695-2.98-3.055c-1.499-0.358-3.07,0.174-4.041,1.372
		c-2.305,2.848-3.858,2.914-9.423,2.729c-3.896-0.133-9.231-0.311-16.288,1.211c-10.362,2.234-15.258,9.654-13.095,19.849
		c0.88,4.148,4.093,7.446,8.183,8.401c1.503,0.351,3.065,0.515,4.659,0.515c9.042,0,19.105-5.263,25.309-11.348
		C247.141,231.262,249.867,224.276,248.485,217.8z M235.207,231.763c-6.473,6.351-16.373,10.197-22.546,8.753
		c-1.083-0.253-1.938-1.145-2.177-2.271c-1.315-6.197,1.497-8.622,4.809-9.776c-0.237,1.025-0.264,2.114-0.024,3.21
		c0.865,3.957,4.774,6.463,8.731,5.597c3.957-0.865,6.463-4.774,5.597-8.731c-0.138-0.632-0.362-1.223-0.643-1.773
		c0.973,0.014,1.917,0.039,2.818,0.069c2.572,0.087,5.08,0.171,7.51-0.332C238.335,228.26,236.964,230.038,235.207,231.763z"/>
	<path d="M143.859,230.847c-8.363-0.306-13.02,1.555-16.104,2.785c-2.991,1.192-2.991,1.192-5.17-0.695
		c-1.166-1.01-2.806-1.261-4.219-0.644c-1.413,0.616-2.346,1.989-2.398,3.529c-0.237,6.937,3.528,13.582,10.331,18.232
		c5.342,3.651,11.782,5.579,17.834,5.579c3.377,0,6.633-0.6,9.51-1.835c3.86-1.658,6.445-5.468,6.584-9.706
		C160.572,237.678,154.453,231.231,143.859,230.847z M150.488,250.448c-5.53,2.375-13.62,1.143-19.673-2.997
		c-1.497-1.022-3.558-2.71-5.029-5.013c1.623-0.135,3.213-0.688,4.936-1.375c1.892-0.755,4.104-1.632,7.472-2.031
		c-0.903,1.108-1.472,2.502-1.533,4.039c-0.148,3.771,2.789,6.948,6.561,7.096c3.771,0.148,6.948-2.789,7.096-6.561
		c0.039-0.993-0.141-1.942-0.488-2.808c1.456,1.282,2.524,3.417,2.404,7.03C152.195,248.982,151.51,250.009,150.488,250.448z"/>
	<path d="M198.228,221.607c1.045,0,2.089-0.407,2.874-1.218c2.153-2.224,8.604-6.395,27.61-9.341
		c11.267-1.747,21.411-2.169,21.512-2.173c2.207-0.089,3.925-1.95,3.836-4.157c-0.088-2.206-1.951-3.918-4.156-3.837
		c-4.371,0.175-43.031,2.046-54.55,13.943c-1.537,1.587-1.496,4.119,0.091,5.656C196.222,221.233,197.226,221.607,198.228,221.607z"
		/>
	<path d="M253.005,134.355l8.251-18.772c0.613-1.394,0.381-3.015-0.598-4.181c-0.978-1.166-2.536-1.674-4.014-1.314l-19.92,4.869
		l-15.304-13.648c-1.136-1.013-2.751-1.292-4.161-0.724c-1.412,0.571-2.377,1.894-2.49,3.411l-1.525,20.449l-17.71,10.338
		c-1.315,0.768-2.08,2.215-1.974,3.733s1.066,2.846,2.475,3.423l18.978,7.769l4.358,20.038c0.324,1.487,1.464,2.662,2.941,3.03
		c0.321,0.08,0.646,0.119,0.967,0.119c1.16,0,2.282-0.505,3.052-1.415l13.253-15.648l20.403,2.048
		c1.512,0.146,2.985-0.569,3.792-1.861c0.807-1.291,0.811-2.929,0.01-4.224L253.005,134.355z M238.292,147.661
		c-1.31-0.126-2.6,0.391-3.452,1.396l-9.374,11.068l-3.083-14.174c-0.28-1.286-1.175-2.353-2.393-2.852l-13.423-5.494l12.526-7.313
		c1.137-0.663,1.875-1.844,1.972-3.156l1.079-14.464l10.825,9.653c0.982,0.877,2.332,1.214,3.612,0.9l14.089-3.444l-5.836,13.278
		c-0.53,1.205-0.433,2.594,0.26,3.714l7.629,12.335L238.292,147.661z"/>
	<path d="M194.638,293.175c-0.434-2.167-2.539-3.58-4.707-3.138c-4.71,0.941-11.109,1.26-14.837,1.367
		c0.086-1.321,0.332-3.15,0.559-4.836c1.238-9.202,3.31-24.604-2.732-47.784c-7.247-27.801-39.301-29.776-55.239-26.929
		c-2.175,0.388-3.624,2.465-3.236,4.64c0.388,2.176,2.472,3.632,4.64,3.235c0.388-0.07,38.881-6.599,46.094,21.071
		c5.645,21.657,3.705,36.082,2.545,44.7c-0.824,6.121-1.368,10.165,1.623,12.906c0.738,0.676,1.702,1.051,2.703,1.051
		c0.472,0,11.652-0.018,19.451-1.578C193.667,297.448,195.071,295.341,194.638,293.175z"/>
</g>
</svg>